<?xml version="1.0" encoding="UTF-8"?>
<!DOCTYPE svg PUBLIC "-//W3C//DTD SVG 1.1//EN" "http://www.w3.org/Graphics/SVG/1.1/DTD/svg11.dtd">
<!-- Creator: CorelDRAW 2020 (64-Bit Evaluation Version) -->
<svg xmlns="http://www.w3.org/2000/svg" xml:space="preserve" width="126.214mm" height="150.272mm" version="1.1" style="shape-rendering:geometricPrecision; text-rendering:geometricPrecision; image-rendering:optimizeQuality; fill-rule:evenodd; clip-rule:evenodd"
viewBox="0 0 71536.12 85172.11"
 xmlns:xlink="http://www.w3.org/1999/xlink"
 xmlns:xodm="http://www.corel.com/coreldraw/odm/2003">
 <defs>
  <style type="text/css">
   <![CDATA[
    .str8 {stroke:#EF7F1A;stroke-width:581.75;stroke-miterlimit:2.61313}
    .str7 {stroke:#EF7F1A;stroke-width:581.75;stroke-miterlimit:2.61313}
    .str9 {stroke:#EF7F1A;stroke-width:581.75;stroke-miterlimit:2.61313}
    .str4 {stroke:#EF7F1A;stroke-width:581.75;stroke-miterlimit:2.61313}
    .str6 {stroke:#EF7F1A;stroke-width:581.75;stroke-miterlimit:2.61313}
    .str3 {stroke:#EF7F1A;stroke-width:552.96;stroke-miterlimit:2.61313}
    .str11 {stroke:#EF7F1A;stroke-width:495.43;stroke-miterlimit:2.61313}
    .str10 {stroke:#EF7F1A;stroke-width:512.09;stroke-miterlimit:2.61313}
    .str1 {stroke:#2B2A29;stroke-width:1094.12;stroke-miterlimit:2.61313}
    .str5 {stroke:#EF7F1A;stroke-width:542.81;stroke-miterlimit:2.61313}
    .str2 {stroke:#EF7F1A;stroke-width:550.01;stroke-miterlimit:2.61313}
    .str0 {stroke:#FEFEFE;stroke-width:704.46;stroke-miterlimit:2.61313;stroke-dasharray:704.456792 704.456792}
    .fil0 {fill:none}
    .fil5 {fill:#0974BA}
    .fil12 {fill:#382372}
    .fil6 {fill:#719937}
    .fil4 {fill:#8BD0F4}
    .fil1 {fill:#B0CB1F}
    .fil3 {fill:#EF7F1A}
    .fil2 {fill:#FEFEFE}
    .fil7 {fill:#2B2A29;fill-rule:nonzero}
    .fil9 {fill:#2B2A29;fill-rule:nonzero}
    .fil8 {fill:#E31E24;fill-rule:nonzero}
    .fil10 {fill:#EF7F1A;fill-rule:nonzero}
    .fil11 {fill:#FEFEFE;fill-rule:nonzero}
   ]]>
  </style>
    <clipPath id="id0">
     <path d="M35722.06 15802.98c14569.54,0 26380.43,11810.89 26380.43,26380.43 0,14569.49 -11810.89,26380.37 -26380.43,26380.37 -14569.49,0 -26380.37,-11810.89 -26380.37,-26380.37 0,-14569.54 11810.89,-26380.43 26380.37,-26380.43z"/>
    </clipPath>
 </defs>
 <g id="Layer_x0020_1">
  <metadata id="CorelCorpID_0Corel-Layer"/>
  <g id="_1354728592">
   <g>
    <path class="fil0 str0" d="M35788.49 6911.09c19548.35,0 35395.48,15847.13 35395.48,35395.26 0,19548.35 -15847.13,35395.48 -35395.48,35395.48 -19548.12,0 -35395.26,-15847.13 -35395.26,-35395.48 0,-19548.12 15847.13,-35395.26 35395.26,-35395.26z"/>
   </g>
   <path class="fil1" d="M35752.05 6703.14c19745.25,0 35751.93,16006.68 35751.93,35751.99 0,308.67 -3.85,616.61 -11.73,923.63l-71480.46 0c-7.88,-307.03 -11.73,-614.96 -11.73,-923.63 0,-19745.31 16006.68,-35751.99 35751.99,-35751.99zm9935.34 70103.79c-3154.44,910.71 -6487.65,1400.19 -9935.34,1400.19 -3447.75,0 -6780.96,-489.48 -9935.4,-1400.19l19870.74 0z"/>
   <path class="fil2" d="M35722.06 15802.98c14569.54,0 26380.43,11810.89 26380.43,26380.43 0,14569.49 -11810.89,26380.37 -26380.43,26380.37 -14569.49,0 -26380.37,-11810.89 -26380.37,-26380.37 0,-14569.54 11810.89,-26380.43 26380.37,-26380.43z"/>
   <g style="clip-path:url(#id0)">
    <g id="_1354708720">
     <g>
      <path id="1" class="fil3" d="M35815.7 15279.55c9903.88,0 17939.87,5343.19 22618.28,13201.15 -7599.51,-15.87 -18179.17,3495.36 -22521.82,9980.34 -5378.05,-5977.2 -14902.87,-9927.92 -22768.88,-9927.92 -224.39,0 -446.4,120.33 -664.05,338.77 4612.66,-8116.24 13432.57,-13592.35 23336.46,-13592.35z"/>
      <path class="fil4" d="M8558 43041.24c0,1925.37 699.7,3619.15 842.7,5337.41l2247.3 0c3001.75,0 4364.3,1123.65 6180.16,1123.65l2809.16 0c2447.38,0 3635.02,-1123.65 6461.06,-1123.65l1123.65 0c3099.92,0 4690.31,1404.49 7303.82,1404.49 2670.24,0 3492.87,-693.91 5337.41,-1123.65 -3288.03,-11227.1 -17444.45,-19208.51 -28176.8,-19343 -2062.87,0 -4128.46,10690.35 -4128.46,13724.75z"/>
      <path class="fil5" d="M9708.4 49664.74c156.77,1833.72 2590.83,905.5 4569.65,1296.24 2010.5,397.2 2736.27,892.23 5266,892.23l1967.08 0c1104.32,0 3211.06,-1094.23 4777.32,-1094.23l3091.24 0c1801.24,0 3257.09,1094.23 5058.33,1094.23l1686.13 0c3123.72,0 4585.06,-1094.23 7025.41,-1094.23l2529.16 0c2440.35,0 3901.63,1094.23 7025.41,1094.23l1405.12 0c1915.51,0 2965.25,-1094.23 5339.28,-1094.23l2238.12 -2.44 291.16 -1365.33 -1124.1 0c-3175.75,0 -4982.49,1367.77 -7868.5,1367.77 -3903.22,0 -5567.92,-1367.77 -8711.6,-1367.77 -3120.77,0 -5212.15,1367.77 -7868.62,1367.77l-842.87 0c-3123.1,0 -4904.11,-1367.77 -7868.56,-1367.77 -3087.5,0 -4940.38,1367.77 -8430.53,1367.77 -3621.3,254.83 -4822.43,-857.32 -7587.43,-1367.77l-562.02 0c-442.77,0 -1064.99,144.98 -1405.17,273.53z"/>
      <path class="fil5" d="M11180.11 54016.91c3405.47,24.77 5199.97,1392.53 8082.92,1392.53l1124.05 0c2690.02,0 4131.52,-1367.77 7025.52,-1367.77 3701.16,0 5120.22,1367.77 7868.45,1367.77l1124.05 0c2792.89,0 4820.16,-1367.77 8149.57,-1367.77 2724.7,0 4905.52,1367.77 7587.49,1367.77l843.04 0c1723.54,0 3262.41,-642.28 4889.43,-985.02 2227.69,-469.3 3202.22,-315.3 3260.03,-2844.81 -4009.78,0 -5188.23,1367.82 -8711.54,1367.82 -3281.97,0 -4586.54,-1367.82 -7868.45,-1367.82l-281.07 0c-3754.95,0 -4956.08,1367.82 -8430.53,1367.82 -3281.91,0 -4586.59,-1367.82 -7868.5,-1367.82l-1405.12 0c-1846.47,0 -4632.67,1367.82 -6744.4,1367.82 -3381.83,0 -5097.89,-1367.82 -7306.42,-1367.82l-2288.79 15.13 950.27 2422.15z"/>
      <path class="fil5" d="M18981.96 61427.74l1967.2 0c1395.76,0 4091.79,-1367.77 6744.4,-1367.77 2903.24,0 5575.46,1367.77 7025.47,1367.77l2248.15 0c2057.49,0 4104.26,-1367.77 5901.36,-1367.77l1405.06 0c3262.53,0 5288.27,1367.77 8430.53,1367.77l281.07 0c3831.35,0 5410.19,-3837.25 6744.46,-6291.82 -2570.37,0 -3979.28,1094.23 -5901.42,1094.23l-2810.12 0c-1850.67,0 -3349.19,-1094.23 -5620.41,-1094.23l-2529.16 0c-2271.28,0 -3769.8,1094.23 -5620.35,1094.23l-2529.16 0c-2448.23,0 -3636.32,-1094.23 -6463.44,-1094.23l-2810.18 0c-1246.36,0 -2539.71,1094.23 -4777.32,1094.23l-2529.16 0c-1979.44,0 -3343.52,-1094.23 -6182.37,-1094.23 616.38,2575.36 3599.37,6291.82 7025.41,6291.82z"/>
      <path class="fil5" d="M17576.96 62248.38c1943.45,2825.37 10829.27,6839.05 16018.02,6839.05l4496.25 0c5152.87,0 13948.8,-4089.81 16018.02,-6839.05l-47.38 276.36 -8384.39 -1362.95 -3370.95 -7.59c-1914.43,0 -2862.94,1094.18 -4777.37,1094.18l-2810.12 0c-1693.38,0 -3308.55,-1094.18 -4496.3,-1094.18l-3934.28 0c-1846.19,0 -2613.44,530.74 -4097.91,934.91 -1324.69,360.65 -3137.61,159.27 -4613.57,159.27z"/>
      <path class="fil2" d="M22289.77 46422.22l1088.57 491.91c377.48,-69.77 1907.4,130.3 2054.48,-195.14 162.44,-359.4 -307.88,-2012.26 8.22,-2711.67l105.37 -233.29c690.51,245.36 2680.78,317.34 3523.08,449.12 543.38,85.02 3247.73,269.79 3497.97,382.86 215.72,97.49 920.63,790.55 1492.34,1048.95l310.99 140.56c985.41,445.27 3445.54,864.35 3870.52,344.61 -1517.45,-1161.57 -4010.91,-4059.77 -5688.08,-4817.67l-388.76 -175.7c-1176.14,-531.53 -3314.61,-280.67 -4189.05,-675.78l-233.23 -105.42 175.65 -388.81c289.34,-640.18 1173.7,-1060.45 1465.37,-1584.96 -647.44,14.85 -2038.95,-182.22 -2531.66,127.02 -655.03,411.26 -1376.78,1196.6 -2282.33,787.38l-77.76 -35.14c-1742.35,-787.38 -3167.14,-2648.47 -5219.29,-3575.85l-155.53 -70.28c-2243.28,-1013.75 -5603.8,-246.1 -7663.27,-654.01l-70.22 155.47c719.36,588.21 1154.54,1458.11 2370.01,2007.38 547.4,247.4 922.61,229.21 1469.84,477.01 688.87,311.9 1312.33,124.81 1342.03,138.24 35.93,16.27 2569.92,2098.24 3065.8,2454.12 1030.92,739.71 2183.65,1673.83 3307.13,2298.48l-175.7 388.81c-297.96,659.28 -1857.47,996.75 -2270.6,1501.98l410.75 811.01 1387.38 1218.81z"/>
      <g>
       <path class="fil6" d="M36607.04 39335.88c2120.74,2629.71 4086.63,5479.28 5340.19,8824.67 776.33,-11.68 1440.31,-5.78 2026.82,14.62 1621.23,-2054.99 11822.45,-14164.35 15478.16,-18524.79 -210.39,-186.42 -427.24,-288.49 -649.88,-285.15 -7531.32,113.13 -17904.67,3350.32 -22195.29,9970.65zm8512.82 8903.96c2137.74,172.3 3245.75,578.57 6052.64,970.05 3478.41,484.77 5257.04,-1266.93 8751.27,-1319.42l2283.8 -29.53 448.84 -5068.36 -8.45 -561.63c-42.4,-2821.17 -1343.39,-10818.84 -3147.75,-12537.28 -4793.47,6182.03 -9586.88,12364.07 -14380.35,18546.16z"/>
       <path class="fil2" d="M62694.16 37864.4c-1220.46,641.49 -11698.95,2874.28 -11700.42,2348.87 -307.88,413.47 -615.75,826.94 -923.63,1240.47 4445.29,-518.89 8544.68,-2025.52 12624.05,-3589.33z"/>
       <path class="fil2" d="M62427.49 43246.07c-1368.56,226.32 -15677.1,2449.98 -15551.33,2030.28 -203.59,323.24 -407.18,646.42 -610.77,969.6 5313.95,-469.52 10691.54,-1398.77 16162.09,-2999.88z"/>
       <path class="fil2" d="M50756.65 31772.48c-200.08,896.26 900.11,6924.47 1352.69,6657.68 -267.07,354.24 -534.08,708.48 -801.15,1062.72 -835.38,-2339.23 -720.95,-5019.96 -551.54,-7720.4z"/>
       <path class="fil2" d="M45073.28 33798.57c-153.43,1166.61 1222.1,11834.3 2105.44,11323 -332.76,300.28 -665.58,600.57 -998.39,900.9 -991.87,-3754.21 -1443.94,-7786.09 -1107.04,-12223.9z"/>
      </g>
     </g>
    </g>
   </g>
   <path class="fil0" d="M35722.06 15802.98c14569.54,0 26380.43,11810.89 26380.43,26380.43 0,14569.49 -11810.89,26380.37 -26380.43,26380.37 -14569.49,0 -26380.37,-11810.89 -26380.37,-26380.37 0,-14569.54 11810.89,-26380.43 26380.37,-26380.43z"/>
   <g>
    <path class="fil7" d="M50422.59 60296.94l729.45 190.78 -350.05 1013.52 -729.45 -190.78 -44.38 -960.47 394.43 -53.05zm3070.33 -1629.05l440.17 906.74 -0.23 0.11 -118.74 64.22 -117.78 62.57 -116.7 60.82 -115.74 59.34 -114.83 57.76 -113.81 56.51 -113.07 55.2 -112.11 54.01 -111.2 52.94 -110.52 51.97 -109.73 51.12 -109.16 50.44 -108.37 49.71 -107.63 49.2 -107.29 48.8 -106.61 48.29 -105.99 48.12 -105.71 48.01 -105.25 47.95 -104.91 48.01 -104.46 48.06 -104.23 48.4 -104.23 48.91 -104.06 49.25 -103.83 49.76 -103.72 50.39 -104.01 51.35 -104.01 52.14 -104.06 53.11 -104.4 54.18 -104.63 55.37 -105.08 56.74 -438.8 -907.42 113.58 -61.38 113.02 -59.8 112.11 -58.27 111.66 -56.96 110.92 -55.54 110.24 -54.41 109.84 -53.45 109.28 -52.37 108.6 -51.41 108.09 -50.61 107.86 -50.1 107.52 -49.54 106.95 -48.91 106.73 -48.63 106.5 -48.35 106.33 -48.23 106.16 -48.18 105.82 -48.12 106.05 -48.4 105.99 -48.57 105.88 -48.97 106.1 -49.42 106.22 -50.05 106.56 -50.67 106.78 -51.41 106.95 -52.26 107.58 -53.33 107.92 -54.35 108.48 -55.6 109.11 -56.85 109.73 -58.27 110.47 -59.8 -0.23 0.11zm820.87 -702.36l422.14 916.38 -0.28 0.11 -8.45 4.7 -9.18 5.55 -10.77 7.08 -12.19 8.45 -13.15 9.86 -14.57 11.56 -15.19 12.64 -16.78 14.62 -17.85 16.1 -17.91 16.78 -19.1 18.48 -20.46 20.23 -20.8 20.91 -21.37 21.93 -22.67 23.52 -23.52 24.49 -23.63 24.71 -24.94 26.13 -26.24 27.15 -26.41 27.09 -27.72 28.06 -29.19 28.91 -30.21 29.13 -31.29 29.3 -33.1 29.93 -34.69 30.1 -36.39 29.98 -38.26 29.98 -40.58 29.76 -42.85 29.36 -45.29 28.57 -47.84 27.55 -440.17 -906.74 4.53 -2.61 6.4 -4.08 8.16 -5.55 9.98 -7.42 11.73 -9.13 13.26 -11.05 14.51 -12.53 15.76 -14.28 17.34 -16.27 18.19 -17.57 19.1 -18.93 20.35 -20.57 21.65 -22.22 21.93 -22.73 23.12 -24.2 24.66 -25.73 25 -26.07 25.96 -26.92 27.6 -28.28 28.51 -28.74 29.3 -28.96 31 -29.93 32.76 -30.61 33.5 -30.27 35.03 -30.49 37.41 -31.12 38.71 -30.49 40.92 -30.61 42.79 -29.98 45 -29.42 47.61 -28.57 49.37 -27.15 -0.28 0.11zm645.96 -4633.07l-602.15 -799.96 64.05 -43.76 335.88 -179.56 329.19 -137.84 322.16 -95.67 314.17 -52.77 303.97 -8.9 289.91 35.2 271.09 78.44 247.57 118.68 220.37 154.51 191.23 185.11 161.76 210.9 132.97 232.33 105.14 250.41 78.56 265.94 52.6 279.14 27.55 290.7 2.55 300.57 -22.1 308.56 -46.87 315.13 -71.87 319.89 -97.09 323.01 -122.71 324.31 -148.61 323.8 -175.08 321.37 -201.95 316.83 -228.98 310.2 -256.53 301.59 -284.24 290.76 -312.19 277.67 -340.13 262.42 -368.18 245.02 -395.84 225.41 -422.14 -916.38 325.56 -185.4 299.26 -199.22 274.15 -211.52 249.73 -222.24 226.09 -231.25 203.02 -238.79 180.58 -244.68 158.53 -248.82 136.88 -251.31 115.74 -252.16 94.94 -250.97 74.42 -247.85 54.52 -242.92 35.08 -235.78 16.32 -226.6 -1.87 -215.09 -19.04 -201.72 -35.03 -186.08 -49.65 -168.56 -62.63 -149.4 -73.68 -129.17 -82.86 -108.31 -90.69 -88.08 -97.94 -68.92 -106.44 -51.24 -117.72 -34.12 -133.02 -16.27 -152.3 4.48 -174.4 29.42 -198.26 58.95 -221.95 92.95 -245.42 131.38 64.05 -43.76zm-602.15 -799.96l30.72 -24.09 33.33 -19.67 -64.05 43.76zm-3748.77 2936.29l3748.77 -2936.29 602.15 799.96 -3748.77 2936.29 -99.53 63.08 -502.62 -863.04zm602.15 799.96l-46.76 36.61 -52.77 26.47 99.53 -63.08zm-9562.11 2473.68l-465.22 -892.57 0.06 -0.06 244.17 -132.17 252.67 -119.93 260.27 -108.54 267.3 -98.39 273.81 -89.27 279.93 -81.16 285.66 -74.14 291.04 -67.9 295.98 -62.57 300.51 -57.98 304.65 -54.3 308.39 -51.35 311.62 -49.08 314.4 -47.55 316.55 -46.76 318.53 -46.7 319.78 -47.21 320.4 -48.46 320.8 -50.44 320.46 -52.94 319.55 -56.17 318.14 -59.97 316.21 -64.44 313.66 -69.54 310.48 -75.16 306.8 -81.39 302.55 -88.25 297.73 -95.56 292.46 -103.55 286.45 -111.88 280.16 -120.9 273.53 -130.42 403.1 926.13 -314 149.8 -318.7 137.56 -322.39 125.94 -325.56 115.23 -328.23 105.42 -330.21 96.3 -331.85 88.08 -332.82 80.6 -333.38 73.85 -333.33 67.96 -332.76 62.8 -331.8 58.32 -330.21 54.52 -328.06 51.58 -325.5 49.25 -322.27 47.55 -318.42 46.7 -314.17 46.42 -309.18 46.76 -303.68 47.84 -297.51 49.54 -290.82 51.8 -283.28 54.69 -275.23 58.15 -266.45 62.12 -256.98 66.65 -246.83 71.53 -235.95 76.91 -224.45 82.52 -212.2 88.48 -199.62 94.65 -186.81 101.11 0.06 -0.06zm-4178.85 6337.39l-982.12 -281.47 0 -0.06 57.98 -167.94 51.12 -169.58 45.51 -172.47 41.04 -175.59 37.63 -179.16 35.31 -182.73 34.18 -186.7 34.29 -190.89 35.71 -195.03 38.54 -199.34 42.79 -203.53 48.4 -207.73 55.6 -212.03 64.27 -216.06 74.48 -219.86 86.09 -223.43 99.19 -226.54 113.47 -229.26 129 -231.59 145.66 -233.63 163.4 -235.27 182.16 -236.63 201.78 -237.88 222.46 -239.13 244.11 -240.43 266.96 -241.9 290.82 -243.43 315.76 -245.36 342 -247.4 369.49 -249.95 398.34 -252.56 428.21 -255.39 465.22 892.57 -401.91 239.75 -369.88 234.54 -339.45 229.55 -310.26 224.5 -282.54 219.52 -256.13 214.41 -231.13 209.48 -207.84 204.61 -185.96 199.9 -165.73 195.37 -147.14 191.29 -130.19 187.44 -114.83 184.21 -101.11 181.6 -88.87 179.61 -77.99 178.37 -68.52 177.86 -60.19 177.8 -53.05 178.54 -47.1 179.73 -42.17 181.31 -38.48 183.35 -35.82 185.4 -34.46 188 -34.29 190.78 -35.42 193.73 -38.03 196.79 -42.06 199.9 -47.5 203.02 -54.58 206.25 -63.14 209.26 -73.06 211.58 0 -0.06zm-2028.75 6761.63l-104.97 1046.06 -468.67 -540.43 31.97 -258 32.08 -254.94 32.25 -252.05 32.59 -249.5 33.04 -246.95 33.61 -244.62 34.29 -242.41 35.03 -240.43 35.88 -238.5 36.84 -236.86 37.97 -235.22 39.16 -233.91 40.53 -232.67 41.89 -231.53 43.42 -230.62 45.17 -229.89 46.82 -229.21 48.74 -228.75 50.73 -228.36 52.77 -228.24 55.09 -228.19 57.25 -228.24 59.74 -228.53 62.18 -228.81 64.84 -229.49 67.62 -230.11 70.45 -230.96 73.4 -231.81 76.35 -232.89 79.58 -234.37 82.86 -235.61 86.15 -237.03 982.12 281.47 -82.07 226.03 -78.9 224.39 -75.72 222.92 -72.72 221.78 -69.88 220.82 -67.05 219.74 -64.33 219.12 -61.78 218.61 -59.34 218.27 -57.02 218.1 -54.75 218.04 -52.6 218.21 -50.5 218.5 -48.69 219.18 -46.82 219.69 -45.12 220.59 -43.47 221.61 -41.94 222.8 -40.64 224.16 -39.28 225.64 -38.03 227.22 -36.95 229.21 -36.05 231.19 -35.08 233.29 -34.35 235.67 -33.61 238.11 -33.04 240.66 -32.59 243.55 -32.25 246.44 -31.91 249.56 -31.85 252.79 -31.74 256.19 -468.67 -540.43zm-104.97 1046.06l-534.53 -5.61 65.86 -534.82 468.67 540.43zm11014.61 -323.52l920.35 -584.13 -512.66 815.09 -371.07 -3.34 -367.96 -2.1 -365.35 -0.96 -362.69 0 -360.36 1.02 -358.26 1.87 -356.34 2.72 -354.69 3.4 -353.05 3.97 -351.75 4.65 -350.73 5.04 -349.76 5.5 -349.14 5.84 -348.63 6.01 -348.29 6.23 -348.23 6.29 -348.4 6.29 -348.74 6.23 -349.25 6.01 -349.93 5.84 -350.9 5.5 -352.03 5.1 -353.39 4.59 -354.92 4.14 -356.62 3.4 -358.6 2.72 -360.7 1.87 -363.08 1.02 -365.52 0.06 -368.35 -0.96 -371.19 -2.1 -374.36 -3.29 104.97 -1046.06 370.96 3.29 368.01 2.1 365.29 0.96 362.69 -0.06 360.36 -1.02 358.21 -1.87 356.34 -2.72 354.58 -3.4 353.11 -4.02 351.8 -4.59 350.67 -5.1 349.76 -5.5 349.14 -5.84 348.57 -6.01 348.29 -6.23 348.29 -6.29 348.35 -6.29 348.74 -6.23 349.31 -6.01 349.93 -5.84 350.9 -5.5 352.09 -5.04 353.33 -4.65 354.98 -4.08 356.62 -3.4 358.6 -2.72 360.76 -1.87 363.08 -1.02 365.63 0 368.3 0.96 371.24 2.1 374.36 3.34 -512.66 815.09zm920.35 -584.13l481.43 825.58 -994.08 -10.49 512.66 -815.09zm-427.92 -3631.62l-27.09 1043.9 396.18 -199.28 -24.2 30.55 -25.96 39.16 -26.98 48.23 -26.92 57.08 -26.19 65.69 -24.71 73.68 -22.78 80.88 -20.4 87.17 -17.8 92.95 -14.96 97.83 -11.96 101.91 -9.07 105.59 -6.01 108.6 -3.12 110.58 -0.06 112.22 2.66 113.53 5.5 113.75 8.11 113.53 10.77 112.79 13.15 111.43 15.53 109.67 17.63 107.18 19.67 103.95 21.54 100.38 23.18 96.01 24.66 91.14 25.79 85.53 26.58 79.07 27.15 72.1 27.09 64.22 26.24 55.15 24.71 45.46 -920.35 584.13 -50.22 -92.39 -46.19 -96.75 -42.51 -100.83 -39.62 -105.08 -36.9 -109.56 -34.18 -113.41 -31.68 -117.21 -29.19 -120.95 -26.64 -124.18 -24.09 -127.3 -21.37 -129.74 -18.7 -132.12 -15.87 -134.21 -12.92 -135.91 -9.81 -137.22 -6.63 -138.01 -3.34 -138.58 0.17 -139.09 3.91 -139.03 7.71 -138.52 11.79 -138.01 16.15 -137.16 20.86 -136.03 25.73 -134.55 31.17 -133.08 37.07 -131.32 43.64 -129.45 50.9 -127.47 59.23 -125.2 68.47 -122.14 78.9 -118.51 90.4 -113.41 396.18 -199.28zm-396.18 199.28l161.08 -184.38 235.1 -14.91 -396.18 199.28zm15591.97 -9111.63l1037.1 71.98 3.57 -26.64 -76.69 419.65 -135.06 418.29 -187.38 415.06 -234.76 412 -278.23 409.33 -318.82 407.18 -356.62 405.08 -392.16 402.87 -425.37 400.26 -456.43 397.03 -485.34 393.12 -511.92 388.3 -536.41 382.52 -558.68 375.83 -578.74 367.96 -596.43 358.94 -611.96 349.03 -625.28 337.75 -636.27 325.39 -645.06 311.73 -651.58 297.05 -655.83 281.01 -657.75 263.84 -657.64 245.42 -655.2 225.69 -650.56 204.84 -643.81 182.56 -634.8 159.1 -623.8 134.27 -610.82 108.09 -595.69 80.43 -578.46 51.29 27.09 -1043.9 526.88 -46.76 549.21 -74.19 568.88 -100.72 585.83 -126.11 600.11 -150.37 611.73 -173.49 620.63 -195.43 627.2 -216.06 631 -235.56 632.48 -253.64 631.23 -270.47 627.66 -286.17 621.48 -300.4 612.81 -313.38 601.81 -325.05 588.27 -335.42 572.17 -344.44 553.58 -351.97 532.49 -358.15 508.97 -363.03 482.9 -366.2 454.28 -367.96 423.1 -368.01 389.32 -366.26 353.16 -362.74 314.34 -356.9 273.25 -348.91 230.06 -338.14 185.11 -324.48 139.32 -307.93 93.58 -288.61 49.37 -268.77 3.57 -26.64zm-3.57 26.64l1.42 -12.98 2.15 -13.66 -3.57 26.64zm3519.9 -15557.68l-2479.23 15603.02 -1037.1 -71.98 2479.23 -15603.02 1043.51 -24.03 -6.4 96.01zm6.4 -96.01l1.25 47.95 -7.65 48.06 6.4 -96.01zm-3559.18 539.64l-990.63 -257.77 -8.9 28.17 74.02 -228.81 88.42 -221.9 101.62 -214.13 113.75 -205.74 124.86 -196.9 135.01 -187.44 144.25 -177.46 152.64 -167.09 160.29 -156.04 167.03 -144.53 173.61 -132.51 179.22 -119.65 184.38 -105.99 189.14 -91.59 193.56 -76.01 197.35 -59 200.25 -40.53 202.51 -20.23 203.14 2.15 201.44 26.64 196.9 52.6 188.85 79.63 177.23 106.56 162.55 132.46 145.44 156.72 127.13 179.27 108.26 200.13 89.61 220.08 71.13 239.75 53.05 259.47 35.08 279.71 17 300.34 -1049.91 120.05 -13.38 -235.84 -26.02 -207.95 -36.95 -180.92 -45.85 -154.62 -52.65 -129.51 -57.25 -105.93 -59.91 -84.51 -61.33 -66.03 -62.01 -50.61 -63.2 -37.86 -65.75 -27.6 -69.94 -18.59 -75.95 -9.86 -82.75 -0.79 -90.06 9.13 -97.2 19.78 -103.27 31 -108.2 42.57 -111.94 54.18 -114.21 65.75 -115.06 76.8 -114.55 87.51 -112.96 97.71 -109.96 107.07 -105.82 115.85 -100.72 123.84 -94.43 131.1 -87.45 137.73 -79.29 143.4 -70.56 148.61 -60.99 152.98 -50.78 157.06 -8.9 28.17zm8.9 -28.17l-3.91 13.72 -4.99 14.45 8.9 -28.17zm-3883.44 8149.4l2883.91 -8379.01 990.63 257.77 -2883.91 8379.01 -999.52 -229.6 8.9 -28.17zm-8.9 28.17l3.91 -13.72 4.99 -14.45 -8.9 28.17zm-7317.25 9003.38l350.05 -1013.52 -392.16 51.8 664.16 -356.96 615.3 -328.17 568.09 -301.64 523.03 -277.16 479.73 -254.83 438.41 -234.59 398.9 -216.46 361.1 -200.36 325.05 -186.02 290.65 -173.66 257.94 -162.95 227.11 -153.83 198.2 -146.17 171.74 -140.28 148.38 -136.2 128.43 -134.44 112.45 -135.97 100.43 -141.41 91.76 -151.39 85.87 -165.9 81.96 -184.15 79.41 -205.46 78.39 -229.32 78.73 -255.11 80.6 -282.66 84.34 -311.62 89.67 -342.34 97.09 -374.76 106.5 -408.82 117.89 -444.64 131.32 -482.45 146.74 -521.95 1008.42 201.44 -144.25 512.77 -129.06 474.4 -116.3 438.75 -105.71 405.76 -97.32 375.44 -91.14 347.89 -87.4 323.18 -86.04 301.36 -87.23 282.43 -91.08 266.39 -97.88 252.73 -107.46 241.28 -119.76 231.08 -134.5 221.67 -150.65 212.15 -167.77 202.85 -185.11 193.84 -202.8 186.3 -221.27 180.75 -240.94 177.91 -262.48 177.86 -286.28 180.86 -312.53 186.7 -341.26 195.43 -372.66 206.71 -406.61 220.65 -442.94 237.09 -481.88 255.96 -523.03 277.16 -566.73 300.85 -612.58 326.81 -660.87 355.15 -392.16 51.8zm392.16 -51.8l-192.65 104.01 -199.51 -52.2 392.16 -51.8z"/>
    <path id="1" class="fil2" d="M50977.02 60994.49l-729.45 -190.78c1169.33,-637.75 2237.95,-1011.71 3465.44,-1682.44 281.07,-153.77 500.75,-534.53 811.86,-697.54 3992.89,-2094.89 3312.8,-7369.56 133.82,-5491.24l-3748.77 2936.29c-3101.79,1555.31 -7253.94,1130.34 -9493.64,2427.37 -4596.91,2662.7 -3688.98,4617.09 -4437.3,6642.94 -915.36,2478.72 -1250.38,4665.66 -1590.17,7425.39 3992.04,41.83 7429.92,-134.61 11422.3,-92.56 -405.76,-695.78 -618.93,-2671.99 18.7,-3401.73 5781.71,-367.28 15337.93,-5780.81 15727.88,-9398.31l2479.23 -15603.02c-76.8,-2991.49 -2933.11,-1734.08 -3529.54,350.73l-2883.91 8379.01c-1640.9,5734.22 -312.53,4437.87 -7646.44,8395.9z"/>
   </g>
   <g>
    <path class="fil0 str1" d="M12507.13 62093.09c-4068.1,-3920.96 -6135.67,-15863.46 -5517.93,-21631.45 54.47,-508.41 299.38,680.48 717.83,411.43 433.87,-278.35 1472.96,99.64 1875.04,764.59 3374.86,5582.32 -894.16,14336.48 10429.12,19010.98 114.26,58.78 -1471.54,-1060.34 -3006.57,-2307.78 -1368.96,-1112.49 -4277.52,-3751.38 -3899.93,-5809.26 89.33,-484.2 635.65,-869.45 2220.04,-80.26 1041.13,518.72 1775.62,1915.34 3210.38,3068.46 5406.11,4345.82 13656.23,4413.1 15469.2,12330.8 93.07,406.84 335.25,949.08 434.33,1429.83 320.63,1552.99 473.1,3262.81 354.01,3260.71l-8233.34 -142.94c237.48,-853.58 661.44,-3005.15 -1401.77,-4078.24 -4467.17,-2324.21 -9075.81,-2781.44 -12650.41,-6226.87z"/>
    <path id="1" class="fil2" d="M12507.13 62093.09c-4068.1,-3920.96 -6135.67,-15863.46 -5517.93,-21631.45 54.47,-508.41 299.38,680.48 717.83,411.43 433.87,-278.35 1472.96,99.64 1875.04,764.59 3374.86,5582.32 -894.16,14336.48 10429.12,19010.98 114.26,58.78 -1471.54,-1060.34 -3006.57,-2307.78 -1368.96,-1112.49 -4277.52,-3751.38 -3899.93,-5809.26 89.33,-484.2 635.65,-869.45 2220.04,-80.26 1041.13,518.72 1775.62,1915.34 3210.38,3068.46 5406.11,4345.82 13656.23,4413.1 15469.2,12330.8 93.07,406.84 335.25,949.08 434.33,1429.83 320.63,1552.99 473.1,3262.81 354.01,3260.71l-8233.34 -142.94c237.48,-853.58 661.44,-3005.15 -1401.77,-4078.24 -4467.17,-2324.21 -9075.81,-2781.44 -12650.41,-6226.87z"/>
   </g>
   <path class="fil8" d="M33863.75 65325.23c1062.89,78.05 1933.08,422.2 2053.86,977.53 133.36,613.83 -478.54,1327.47 -1575.72,1984.99 -2202.36,1445.19 -5828.7,2414.96 -8398.16,2250.65 -1246.47,-29.19 -2084.07,-353.9 -2217.38,-967.22 -117.61,-541.17 105.76,-1103.7 968.81,-1693.27 119.19,96.69 555.79,163.97 692.78,279.08 -775.47,488.91 -1237.97,972.09 -1170.52,1282.18 72.38,333.5 730.76,515.09 1736.23,538.62 1105.63,25.9 2586.92,-171.68 4181.06,-598.98 1194.22,-265.37 2887.49,-938.71 3967.44,-1585.86 885.37,-530.45 1396.73,-1025.14 1324.35,-1358.24 -71.53,-329.7 -662.17,-517.42 -1647.87,-544.4 36.5,-227.73 43.64,-335.88 85.13,-565.08z"/>
   <path class="fil8" d="M33938.34 66422.64c1091.68,68.92 2188.64,527.56 2311.92,1093.89 133.36,613.71 -478.59,1327.58 -1575.72,1984.88 -2170.45,1445.58 -5797.3,2415.07 -8398.16,2250.87 -1246.53,-29.42 -2084.07,-354.13 -2217.43,-967.44 -193.78,-892.01 1186.34,-1767.01 1773.53,-2108.33 161.36,217.08 166.35,296.32 273.42,467.43 -374.59,206.71 -1664.7,1008.31 -1555.82,1508.95 72.32,333.44 730.7,515.04 1736.23,538.56 2451.68,57.53 5847.58,-891.21 8006,-2184.79 885.32,-530.4 1539.16,-1025.2 1466.84,-1358.19 -106.05,-487.66 -1585.24,-742.66 -1916.87,-748.33 39.5,-230.68 29.42,-311.79 96.07,-477.52z"/>
   <path class="fil9" d="M3470.37 35035.69l-185.91 1291.59 443.96 336.67 1495.01 1404.78 -2138.76 -353.39 -175.82 1221.14 3379.62 418.23 1408.18 270.87 173.61 -1206.29 -1543.98 -169.13 -829.26 -134.5c887.02,-372.43 1740.14,-772.41 2595.48,-1187.19l93.35 -122.99c20.57,-406.1 10.43,-809.2 -28.28,-1223.92l-131.55 -34.06c-814.02,496.45 -1670.37,971.87 -2525.65,1386.7l-2030 -1898.5zm4603.03 -4005.52l-3125.76 -1011.71 -356.73 1184.75 1856.22 519.85 -240.71 851.71 -285.32 869.56 -1827.54 -589.51 -358.94 1192.18 3279.53 916.94 1352.12 477.69 352.48 -1170.52 -1499.43 -404.57 -342.51 -110.86 227.17 -832.27 295.41 -929.24 468.9 133.36 1354.28 470.43 352.43 -1170.41 -1501.58 -397.37zm2375.28 -3615.24l-478.48 1117.53 -342.79 717.27 -549.27 -241.79 -376.86 -185.45 309.52 -658.38 387.4 -770.88 -782.5 -450.71 -110.18 22.73 -314.68 722.14 -335.08 712.56 -866.78 -424.18 344.21 -749.69 539.47 -1047.42 -779.22 -457.57 -109.16 23.29 -1377 2928.46 3108.7 1387.09 1267.56 670.73 1357.9 -2887.71 -782.5 -450.82 -110.24 22.78zm-993.06 -5221.28l-112.34 6.63 -1936.19 2927.33 702.93 554.83 116.42 -12.81 487.95 -819.29 124.07 -187.61 2078.57 1329.85 1157.54 846.49 670.22 -1013.35 -1319.7 -818.83 -1937.04 -1326.11 115.85 -175.19 558.85 -763.4 -707.12 -548.53zm3752.17 509.65l-2511.54 -2118.13 -782.9 968.01 2689.68 2088.6 1071.22 953.28 768.73 -950.44 -1235.19 -941.32zm4272.37 -2097.05l-2144.83 -4607.62 -874.32 810.67 426.11 658.26 1348.89 2778.61 -54.92 50.95 -2621.21 -1691.06 -572.79 -430.25 -907.37 841.28 4328.08 2583.4 1072.36 -994.25zm1501.47 -3076.85l-1809.46 -2742.22 -1024.8 706.89 1988.68 2764.32 757.73 1217.45 1006.33 -694.08 -918.47 -1252.37zm3088.92 -2278.08c304.53,-563.84 331.4,-1179.31 40.02,-1703.76 -458.81,-826.03 -1228,-990.74 -2139.27,-484.49l-1776.25 995.39 1712.43 2943.43 636.61 1284.96 1065.33 -591.78 -793.22 -1335.17 557.26 -309.58c471.22,338.71 948.29,657.02 1428.35,965.23l152.24 26.87c346.02,-226.49 663.65,-488.74 942.62,-789.47l-52.48 -125.43c-612.52,-268.77 -1199.71,-568.77 -1773.64,-876.19zm-1679.04 297.85l-694.88 -1312.56 343.13 -216.34c463.35,-231.59 775.02,-164.65 1004.46,248.37 211.18,380.26 187.89,693.4 -67.79,989.89l-584.92 290.65zm7622.18 -675.95l-3030.54 -4027.69 -1368.67 515.21 244.17 5076.58 1116 -420.1 -145.83 -770.49 -12.47 -203.65 693.86 -285.26 819.46 -292.4 160.91 235.95 365.07 607.76 1158.05 -435.91zm-2223.89 -1182.2l-514.13 209.6 -524.62 181.37 -120.9 -1917.6 70.22 -26.41 1089.42 1553.05zm3185.33 -4007.96c-1085.45,231.87 -1685.11,1050.2 -1500.28,1915.56 302.44,1415.49 2309.42,902.38 2461.32,1613.75 43.93,205.4 -79.41,454.11 -475.42,538.67 -322.73,68.92 -895.69,7.37 -1414.01,-265.37l-109.05 100.04 58.55 1099.39c533.63,93.07 1060.06,80.31 1529.41,-20.01 1144.11,-244.4 1726.03,-1074.28 1545.85,-1917.66 -297.73,-1393.44 -2328.69,-921.14 -2472.83,-1595.95 -43.81,-205.29 104.52,-444.08 441.87,-516.17 271.38,-57.98 698.73,4.14 1124.44,166.29l161.93 -103.66 -22.33 -1038.12c-515.94,-81.56 -977.36,-51.92 -1329.45,23.24zm6815.81 4166.77l-1700.35 -4745.07 -1459.81 86.38 -1271.75 4920.66 1190.36 -70.34 89.1 -779.05 48.46 -198.2 747.25 -66.77 869.39 -36.33 83.71 273.13 168.45 688.59 1235.19 -73zm-1773.47 -1788.32l-553.13 47.78 -554.88 17.68 453.09 -1867.27 74.82 -4.42 580.1 1806.23zm5175.99 -2789.94l-63.65 -92.78 -3506.58 -147.76 -112.56 888.49 71.13 93.07 953.56 -4.82 224.73 9.47 -66.37 2466.65 -127.75 1428.3 1213.83 51.07 20.35 -1552.88 136.31 -2343.54 209.77 8.79 942.28 84.73 104.97 -888.78zm16293.76 12583.25l2721.08 -4020.37 -1072.87 -867.8 -608.95 443.06 -1812.35 1167.35 -58.38 -47.21 817.76 -2000.69 309.18 -656.62 -1090.44 -881.86 -3414.99 3459.09 787.15 636.67 1070.88 -1168.99 1045.72 -1054.39 64.16 51.86 -964.61 2528.2 722.99 584.81 2364.06 -1396.27 58.27 47.16 -894.84 1320.95 -877.67 1180.61 833.85 674.47zm2257.56 299.32l2454.63 -2183.77 -846.44 -912.98 -2450.83 2364.46 -1096.33 924.31 831.13 896.37 1107.84 -1088.4zm4364.24 23.58c-673.45,-882.26 -1669.58,-1074.85 -2372.9,-537.94 -1150.57,878.23 170.83,2473.51 -407.4,2914.86 -166.92,127.47 -444.47,122.2 -690.17,-199.73 -200.19,-262.31 -389.32,-806.59 -364.22,-1391.8l-137.05 -55.83 -968.92 522.63c143.79,522.24 380.26,992.72 671.47,1374.34 709.9,929.87 1708.74,1101.49 2394.33,578.18 1132.66,-864.52 -162.04,-2499.01 386.38,-2917.58 166.92,-127.41 446.12,-95.33 655.54,178.93 168.34,220.54 294.78,633.5 330.04,1087.66l162.89 102.13 929.07 -463.8c-146.74,-501.26 -370.62,-905.84 -589.06,-1192.06zm2330.28 3557.48c-539.07,-970.22 -1496.94,-1304.63 -2270.43,-874.83 -1265.35,702.87 -188,2472.2 -823.94,2825.48 -183.52,102.02 -457.45,56.79 -654.13,-297.28 -160.17,-288.44 -268.77,-854.31 -159.49,-1429.77l-127.53 -75.04 -1034.27 377.31c67.05,537.48 233.06,1037.27 466.18,1456.86 568.03,1022.65 1531.79,1336.59 2285.67,917.79 1245.62,-691.99 200.42,-2496.18 803.53,-2831.32 183.52,-101.91 455.24,-29.87 622.84,271.66 134.72,242.58 200.19,669.43 169.58,1123.93l146.4 124.64 986.32 -324.88c-72.83,-517.13 -235.9,-949.82 -410.75,-1264.55zm-1510.65 4499.7l3040.23 -1245.34 -495.48 -1142.13 -3096.57 1417.08 -1340.9 508.01 486.53 1121.5 1406.19 -659.11zm4244.88 1780.27c-455.98,-1420.99 -1593.23,-1946.11 -3157.05,-1444.39 -1471.03,471.96 -2075.4,1484.92 -1656.03,2791.81 455.92,1420.99 1624.07,1944.02 3209.25,1435.38 1442.41,-462.78 2025.35,-1468.94 1603.83,-2782.8zm-960.47 197.86c222.29,692.67 -90.29,1068.62 -1275.66,1448.99 -1021.12,327.6 -1453.52,182.79 -1666.57,-481.26 -219.97,-685.58 90.35,-1068.73 1289.95,-1453.52 1006.84,-323.07 1436.97,-185.45 1652.29,485.79zm-847.74 7632.04l3297.84 -464.59 -246.1 -1099.68 -2903.53 507.16 -12.02 -74.02 2679.82 -2173.9 -210.67 -1304.29 -3359.05 603.57 -1417.36 160.63 178.42 1104.38 1672.24 -323.41 1274.53 -198.32 12.02 73.97 -2679.82 2174.02 210.56 1302.98 1503.11 -288.49z"/>
   <g>
    <path class="fil10" d="M50910.82 7899.45l-335.82 -346.87c1046.68,-1415.09 1971.84,-2685.31 3168.78,-3955.93 1197.96,-1271.75 2475.09,-2471.81 3834.64,-3596.59 -265.31,107.63 -6245.74,6697.81 -6667.6,7899.39z"/>
    <path class="fil11" d="M48283.88 21125.32c-1152.22,713.24 -1659.15,1210.14 -2737.06,2076.36l-133.76 -372.72c1090.49,-876.31 1550.21,-1263.25 2710.59,-1981.48 1161.4,-718.97 2360.66,-1358.3 3599.31,-1914.09 -408.26,594.05 -3236.45,1860.75 -3439.08,2191.93z"/>
    <path class="fil11" d="M46380.05 23896.72c-1078.14,820.99 -1534.74,1364.36 -2524.18,2330.51l-169.07 -358.04c1000.94,-977.36 1421.21,-1406.76 2507,-2233.59 1086.64,-827.51 2218.74,-1579.52 3398.04,-2252.06 -349.14,630.6 -3042.05,2164.1 -3211.8,2513.18z"/>
    <path class="fil11" d="M45064.21 26712.34c-1100.07,918.13 -1556.73,1513.71 -2556.2,2580.97l-195.54 -370.28c1011.14,-1079.61 1434.76,-1553.1 2542.65,-2477.7 1108.8,-925.45 2269.18,-1773.13 3483.06,-2539.42 -338.99,682.69 -3111.14,2429.58 -3273.98,2806.43z"/>
    <path class="fil10" d="M46133.67 9753.46l-358.89 -261.12c667.67,-1336.03 1216.49,-2704.19 2024.95,-3923.28 809.14,-1220.12 1691.85,-2382.76 2651.31,-3484.65 -69.77,46.08 -1387.32,2106.91 -2509.21,4068.61 -937.52,1639.08 -1705.74,3192.7 -1808.16,3600.44z"/>
    <path class="fil11" d="M36084.07 22602.3l-338.54 -33.38c146.57,-1486.22 170.72,-2960.26 490.55,-4387.65 320.12,-1428.58 729.62,-2829.79 1232.36,-4201.63 -89.27,124.69 -1494.04,7705.5 -1384.37,8622.67z"/>
    <path class="fil11" d="M34942.34 27377.18l-356.68 46.59c-204.21,-1565.86 -531.59,-3089.77 -543.38,-4636.53 -11.62,-1547.95 75.21,-3088.98 265.26,-4622.13 -62.29,149.69 302.72,8293.65 634.8,9212.07z"/>
    <path class="fil2" d="M48900.49 10581.64c-231.02,-133.76 -122.71,177.74 -353.56,43.93 -2310.67,1849.93 -8109.22,10167.04 -11653.21,18775.6 -1026.45,2493.23 -1861.49,5102.54 -2405.32,7366.62 227.62,297.62 554.2,649.2 943.81,993.8 1669.8,-7769.88 8866.89,-23672.67 13468.28,-27179.94z"/>
    <path class="fil10" d="M52783.36 9472.67c-1059.38,1093.89 -1427.33,1645.26 -2329.77,2914.41l-342.45 -279.31c912.98,-1283.77 1290,-1846.58 2356.97,-2948.41 1067.77,-1102.79 2216.41,-2114.22 3449.23,-3030.03 -1661.02,1655.75 -2593.72,2785.35 -3133.98,3343.35z"/>
    <path class="fil10" d="M52214.42 13040.58c-1021.91,889.97 -1646.34,1227.43 -2792.49,2001.26l316.61 237.82c1159.41,-782.79 1664.87,-1107.61 2694.04,-2003.98 1030.02,-897.05 1995.08,-1853.95 2892.13,-2873.03 -688.19,214.53 -2734.06,2542.2 -3110.29,2637.93z"/>
    <path class="fil10" d="M50113.01 16771.22c-1078.87,819.91 -1724.44,1114.98 -2919.62,1810.65l300 258.45c1208.95,-703.83 1734.98,-994.2 2821.62,-1819.95 1087.49,-826.43 2114.28,-1716.79 3077.24,-2673.86 -700.94,168.17 -2897.46,2354.2 -3279.25,2424.71z"/>
    <path class="fil10" d="M43643.05 11126.61l-433.59 -176.67c403.49,-1437.93 684.39,-2885.1 1248.23,-4234.9 564.29,-1350.93 1211.84,-2659.18 1946.11,-3922.32 -59.68,58.44 -1044.58,2323.65 -1767.92,4459.35 -603.74,1782.88 -969.2,3454.95 -992.84,3874.54z"/>
    <path class="fil10" d="M40477.44 14444.28l-518.38 -37.46c403.49,-1437.88 684.28,-2885.05 1248.12,-4234.85 564.35,-1350.87 1211.84,-2659.18 1946.11,-3922.32 -329.53,162.16 -2987.98,7363.33 -2675.85,8194.63z"/>
    <path class="fil11" d="M38282.46 18797.08l-338.6 -33.44c146.57,-1486.22 170.72,-2960.15 490.61,-4387.65 320.12,-1428.58 729.57,-2829.67 1232.42,-4201.58 -89.38,124.69 -1494.1,7705.44 -1384.43,8622.67z"/>
    <path class="fil3" d="M51369.52 6773.13c-329.81,-212.94 -1787.24,119.65 -2843.84,1141.33 -1056.54,1021.63 -1228.68,2305.74 -428.32,2843.84 800.47,538.11 1789.34,31.68 2668.14,-1029.34 878.74,-1061.08 934,-2742.78 604.02,-2955.84z"/>
    <path class="fil3" d="M49118.48 9818.13c-231.02,-133.76 -122.6,123.22 -353.45,-10.6 -1158.34,860.44 -3504.83,3883.38 -5291.16,6919.88 129,60.7 364.39,397.32 488.23,464.2 2093.53,-2841.97 3910.93,-6212.92 5156.38,-7373.47z"/>
    <g>
     <path class="fil0 str2" d="M40149.28 14510.48c441.87,-86.55 1828.67,936.56 2063.32,2449.25 234.71,1512.64 -262.36,2845.54 -1110.22,2977.04 -847.91,131.61 -1725.46,-988.19 -1960.23,-2500.71 -234.71,-1512.64 565.25,-2839.02 1007.12,-2925.57z"/>
     <path id="1" class="fil2" d="M40149.28 14510.48c441.87,-86.55 1828.67,936.56 2063.32,2449.25 234.71,1512.64 -262.36,2845.54 -1110.22,2977.04 -847.91,131.61 -1725.46,-988.19 -1960.23,-2500.71 -234.71,-1512.64 565.25,-2839.02 1007.12,-2925.57z"/>
    </g>
    <g>
     <path class="fil0 str3" d="M47467.15 18495.32c-191.74,-364.78 -1721.5,-1016.13 -3159.88,-468.96 -1438.5,547.34 -2355.95,1644.58 -2049.15,2450.83 306.8,806.25 1721.55,1016.25 3159.94,468.96 1438.5,-547.29 2240.9,-2086.05 2049.1,-2450.83z"/>
     <path id="1" class="fil2" d="M47467.15 18495.32c-191.74,-364.78 -1721.5,-1016.13 -3159.88,-468.96 -1438.5,547.34 -2355.95,1644.58 -2049.15,2450.83 306.8,806.25 1721.55,1016.25 3159.94,468.96 1438.5,-547.29 2240.9,-2086.05 2049.1,-2450.83z"/>
    </g>
    <g>
     <path class="fil0 str4" d="M37993.28 17927.74c364.61,-109.73 1901.22,899.32 2273.77,2475.04 372.6,1575.6 -41.38,3022.27 -924.43,3231.18 -883.28,208.75 -1901.28,-899.26 -2273.88,-2475.04 -372.6,-1575.6 559.98,-3121.34 924.54,-3231.18z"/>
     <path id="1" class="fil2" d="M37993.28 17927.74c364.61,-109.73 1901.22,899.32 2273.77,2475.04 372.6,1575.6 -41.38,3022.27 -924.43,3231.18 -883.28,208.75 -1901.28,-899.26 -2273.88,-2475.04 -372.6,-1575.6 559.98,-3121.34 924.54,-3231.18z"/>
    </g>
    <g>
     <path class="fil0 str5" d="M45573.46 21896.26c-159.78,-382.47 -1750.51,-1018.85 -3171.05,-503.93 -1420.53,514.98 -2338.1,1577.93 -2049.44,2374.2 288.61,796.16 1674.11,1023.95 3094.64,509.09 1420.53,-514.87 2285.62,-1996.9 2125.84,-2379.36z"/>
     <path id="1" class="fil2" d="M45573.46 21896.26c-159.78,-382.47 -1750.51,-1018.85 -3171.05,-503.93 -1420.53,514.98 -2338.1,1577.93 -2049.44,2374.2 288.61,796.16 1674.11,1023.95 3094.64,509.09 1420.53,-514.87 2285.62,-1996.9 2125.84,-2379.36z"/>
    </g>
    <g>
     <path class="fil0 str6" d="M36326.09 22037.56c445.61,-35.37 1888.07,1105.17 2118.92,2757.46 230.85,1652.29 -332.65,3096.63 -1258.77,3226.14 -926.07,129.4 -1864.16,-1105.06 -2095.01,-2757.35 -230.85,-1652.29 789.19,-3190.77 1234.85,-3226.25z"/>
     <path id="1" class="fil2" d="M36326.09 22037.56c445.61,-35.37 1888.07,1105.17 2118.92,2757.46 230.85,1652.29 -332.65,3096.63 -1258.77,3226.14 -926.07,129.4 -1864.16,-1105.06 -2095.01,-2757.35 -230.85,-1652.29 789.19,-3190.77 1234.85,-3226.25z"/>
    </g>
    <g>
     <path class="fil0 str7" d="M44364.4 25205.43c-149.69,-358.38 -1971.33,-929.47 -3461.92,-180.29 -1490.7,749.06 -2358.84,2033.85 -1938.86,2869.35 419.87,835.5 1968.78,905.67 3459.48,156.49 1490.59,-749.12 2091.04,-2487.16 1941.29,-2845.54z"/>
     <path id="1" class="fil2" d="M44364.4 25205.43c-149.69,-358.38 -1971.33,-929.47 -3461.92,-180.29 -1490.7,749.06 -2358.84,2033.85 -1938.86,2869.35 419.87,835.5 1968.78,905.67 3459.48,156.49 1490.59,-749.12 2091.04,-2487.16 1941.29,-2845.54z"/>
    </g>
    <g>
     <path class="fil0 str8" d="M42741.35 29131.94c-185.23,-517.42 -1889.15,-986.55 -3445.26,-224.73 -1556.16,761.87 -2536.48,2097.84 -2189.83,2983.84 346.7,886 1889.26,986.55 3445.31,224.67 1556.16,-761.76 2374.83,-2466.25 2189.77,-2983.78z"/>
     <path id="1" class="fil2" d="M42741.35 29131.94c-185.23,-517.42 -1889.15,-986.55 -3445.26,-224.73 -1556.16,761.87 -2536.48,2097.84 -2189.83,2983.84 346.7,886 1889.26,986.55 3445.31,224.67 1556.16,-761.76 2374.83,-2466.25 2189.77,-2983.78z"/>
    </g>
    <g>
     <path class="fil0 str9" d="M33914.93 25883.64c498.03,-134.89 2108.78,852.73 2608.97,2530.86 500.24,1678.36 143.28,3266.1 -797.41,3546.49 -940.64,280.5 -2108.72,-852.73 -2608.97,-2531.09 -500.3,-1678.14 299.32,-3411.48 797.41,-3546.26z"/>
     <path id="1" class="fil2" d="M33914.93 25883.64c498.03,-134.89 2108.78,852.73 2608.97,2530.86 500.24,1678.36 143.28,3266.1 -797.41,3546.49 -940.64,280.5 -2108.72,-852.73 -2608.97,-2531.09 -500.3,-1678.14 299.32,-3411.48 797.41,-3546.26z"/>
    </g>
    <path class="fil3" d="M46244.08 8091.31c469.92,155.3 1028.09,1521.36 866.44,3019.32 -161.7,1497.84 -1092.25,2445.22 -2031.47,2136.21 -939.11,-309.01 -1151.65,-1427.79 -846.32,-2806.6 305.5,-1378.82 1541.31,-2504.34 2011.35,-2348.93z"/>
    <g>
     <path class="fil0 str10" d="M43091.34 11274.43c588.72,26.58 1339.6,1280.14 1500.9,2791.93 161.31,1511.79 -553.64,2645.41 -1545.96,2541.69 -992.33,-103.66 -1441.5,-1161.4 -1435.55,-2586.52 6.01,-1425.12 891.72,-2773.79 1480.61,-2747.09z"/>
     <path id="1" class="fil2" d="M43091.34 11274.43c588.72,26.58 1339.6,1280.14 1500.9,2791.93 161.31,1511.79 -553.64,2645.41 -1545.96,2541.69 -992.33,-103.66 -1441.5,-1161.4 -1435.55,-2586.52 6.01,-1425.12 891.72,-2773.79 1480.61,-2747.09z"/>
    </g>
    <g>
     <path class="fil0 str11" d="M49166.6 15090.25c-161.76,-469.24 -1696.84,-708.99 -3003,-266.33 -1306.21,442.66 -2163.81,1395.03 -1915.62,2127.2 248.14,732.06 1508.1,966.59 2814.2,523.88 1306.16,-442.66 2266.18,-1915.45 2104.42,-2384.75z"/>
     <path id="1" class="fil2" d="M49166.6 15090.25c-161.76,-469.24 -1696.84,-708.99 -3003,-266.33 -1306.21,442.66 -2163.81,1395.03 -1915.62,2127.2 248.14,732.06 1508.1,966.59 2814.2,523.88 1306.16,-442.66 2266.18,-1915.45 2104.42,-2384.75z"/>
    </g>
    <path class="fil3" d="M50789.3 11535.83c-262.25,-305.84 -1551.69,-432.4 -2753.1,118.51 -1201.41,550.86 -1730.96,1588.53 -1212.75,2284.14 518.15,695.5 1508.16,561.34 2570.54,-76.01 1062.32,-637.46 1657.56,-2020.64 1395.31,-2326.65z"/>
   </g>
   <path class="fil12" d="M12233.54 72097.4l47904.76 0c3595.57,0 6537.35,2941.78 6537.35,6537.35l0 0c0,3595.51 -2941.78,6537.35 -6537.35,6537.35l-47904.76 0c-3595.57,0 -6537.35,-2941.84 -6537.35,-6537.35l0 0c0,-3595.57 2941.78,-6537.35 6537.35,-6537.35z"/>
  </g>
  <path class="fil11" d="M14166.33 73993.13l0 9056.54 1530.15 0 0 -9056.54 -1530.15 0zm1948.72 0l0 9056.54 1481.29 0 0 -4070.25 4541.08 4070.25 1996.95 11.51 -5136.94 -4692.24 4734.07 -4375.81 -1948.15 -11.22 -4187.01 3866.83 0 -3855.61 -1481.29 0zm8080.82 0l-4702.1 4366.23 5136.66 4690.31 2063.78 11.51 -5216.91 -4709.36 4750.34 -4358.69 -2031.75 0zm7321.05 9045.32l-5120.67 -9045.32 1524.25 0 4584.27 8095.67 2307.83 0 4573.27 -8095.67 1470.98 0 -5088.99 9045.32 -4250.94 0zm-3180.12 -9045.32l4412.02 7824.07 1800.9 0 4350.53 -7824.07 -1417.08 0 -3800.12 6885.92 -3864.91 -6885.92 -1481.35 0zm13413.3 9045.32l0 -9045.32 5754.17 0 2058.73 6120.54 2224.8 -6120.54 5550.18 0 0 9045.32 -1529.87 0 0 -8095.67 -2801.9 0 -2608.57 6885.92 -1642.66 0 -2576.32 -6885.92 -2898.42 0 0 8095.67 -1530.15 0zm1948.78 0l0 -7835.57 2141.71 0 2535.97 6885.92 2407.42 0 2557.56 -6885.92 2031.75 0 0 7835.57 -1561.83 0 0 -5517.65 -1916.19 5517.65 -4702.1 0 -1996.73 -5460.97 0 5460.97 -1497.56 0z"/>
 </g>
</svg>
